<svg xmlns="http://www.w3.org/2000/svg" viewBox="0 0 335.5 125.53"><defs><style>      .cls-1 {        fill: #fff;      }    </style></defs><title>white logoxl</title><g id="Layer_2" data-name="Layer 2"><g id="Layer_2-2" data-name="Layer 2"><rect class="cls-1" x="2.24" y="67.25" width="14.94" height="56.79"></rect><circle class="cls-1" cx="9.71" cy="53.05" r="9.71"></circle><path class="cls-1" d="M293.66,41.84a41.84,41.84,0,0,0-41.84,41.84V124h16.44V83.69a25.41,25.41,0,1,1,50.81,0V124H335.5V83.69A41.84,41.84,0,0,0,293.66,41.84Z"></path><path class="cls-1" d="M201,41.84c-1,0-1.92,0-2.87.11-18.38,1.1-32.28,12.64-45.18,25.92-11.6,11.94-22.4,25.27-34.95,33.64a47.45,47.45,0,1,1,14.52-62.34l12.08-8.05a62.76,62.76,0,1,0-54.2,94.41c1,0,2,0,3-.08l.59,0c.9-.05,1.81-.12,2.7-.21l.18,0c26.74-2.68,45.85-21.54,62.35-38.78,8.31-8.69,16-17,23.6-22.54,5.34-3.9,10.66-6.49,16.2-7,.65-.06,1.29-.1,1.94-.1a26.9,26.9,0,1,1-23,40.83l-12.81,7.76A41.85,41.85,0,1,0,201,41.84Z"></path><path class="cls-1" d="M113.18,104.42a47.43,47.43,0,0,0,4.83-2.91Q115.64,103.09,113.18,104.42Z"></path></g></g></svg>